<svg xmlns="http://www.w3.org/2000/svg" width="406.99" height="301.142" viewBox="0 0 406.99 301.142"><g id="Having_any_Question" data-name="Having any Question" transform="translate(-320.178 -135.52)"><g id="Group_867" data-name="Group 867" transform="translate(320.178 161.803)"><path id="Path_2550" data-name="Path 2550" d="M694.384,425.72c41.969-119.039-1.426-180.676-93.983-192.545S526.214,152.947,430.173,156.4,269.369,330.294,373.1,425.5Z" transform="translate(-320.178 -156.275)" fill="#8e8e8e"></path><path id="Path_2551" data-name="Path 2551" d="M393.683,368.347a39.926,39.926,0,0,0-9.364-16.817c-1.673-1.786-4.278-3.519-6.373-2.258-1.427.857-1.843,2.728-1.894,4.392a18.6,18.6,0,0,0,2.448,9.8,50.282,50.282,0,0,0-18.127-17.386c-1.289-.722-3.069-1.326-4.093-.261a3.348,3.348,0,0,0-.572,2.644,29.974,29.974,0,0,0,3.572,11.864,36.827,36.827,0,0,0-13.508-11.179c-1.355-.655-2.91-1.233-4.332-.741-2.629.91-2.845,4.584-2.048,7.25,2.312,7.722,8.658,13.449,14.725,18.757a12.736,12.736,0,0,0,5.1,3.189,13.256,13.256,0,0,0,4.868-.068,145.871,145.871,0,0,1,33.218-.572" transform="translate(-315.17 -105.953)" fill="#61648a"></path><path id="Path_2552" data-name="Path 2552" d="M593.266,368.347a39.927,39.927,0,0,1,9.364-16.817c1.673-1.786,4.278-3.519,6.373-2.258,1.427.857,1.842,2.728,1.894,4.392a18.6,18.6,0,0,1-2.448,9.8,50.282,50.282,0,0,1,18.127-17.386c1.288-.722,3.07-1.326,4.093-.261a3.348,3.348,0,0,1,.572,2.644,29.973,29.973,0,0,1-3.572,11.864,36.817,36.817,0,0,1,13.508-11.179c1.355-.655,2.91-1.233,4.332-.741,2.629.91,2.845,4.584,2.048,7.25-2.312,7.722-8.658,13.449-14.725,18.757a12.736,12.736,0,0,1-5.1,3.189,13.256,13.256,0,0,1-4.868-.068,145.872,145.872,0,0,0-33.218-.572" transform="translate(-248.416 -105.953)" fill="#61648a"></path><path id="Path_2553" data-name="Path 2553" d="M719.209,375.607H335.15a5.414,5.414,0,0,1-5.413-5.413h0a5.412,5.412,0,0,1,5.413-5.412H719.209a5.412,5.412,0,0,1,5.414,5.412h0A5.414,5.414,0,0,1,719.209,375.607Z" transform="translate(-317.632 -100.748)" fill="#b6b9d1"></path></g><g id="Group_887" data-name="Group 887" transform="translate(379.948 135.519)"><g id="Group_875" data-name="Group 875" transform="translate(0 69.184)"><g id="Group_869" data-name="Group 869" transform="translate(29.841 165.766)"><g id="Group_868" data-name="Group 868"><path id="Path_2554" data-name="Path 2554" d="M401.442,321.707v3.167h61.741v-3.815Z" transform="translate(-388.148 -321.059)" fill="#f7b2ad"></path><path id="Path_2555" data-name="Path 2555" d="M412.776,324.071l-2.641,7.7-15.471,45.164h-3.721l12.693-45.164,2.169-7.7Z" transform="translate(-390.943 -320.257)" fill="#ffe5e2"></path><path id="Path_2556" data-name="Path 2556" d="M424.132,324.071l-1.53,7.7-8.98,45.164h-3.714l6.194-45.164,1.058-7.7Z" transform="translate(-385.893 -320.257)" fill="#ffe5e2"></path><path id="Path_2557" data-name="Path 2557" d="M444.43,376.937h-3.714l-8.972-45.164-1.53-7.7h6.963l1.058,7.7Z" transform="translate(-380.485 -320.257)" fill="#ffe5e2"></path><path id="Path_2558" data-name="Path 2558" d="M464.638,376.937h-3.714l-15.478-45.164-2.641-7.7h6.971l2.169,7.7Z" transform="translate(-377.132 -320.257)" fill="#ffe5e2"></path><path id="Path_2559" data-name="Path 2559" d="M403.136,324.071h6.97l-2.64,7.7h-6.5Z" transform="translate(-388.274 -320.257)" fill="#e28886"></path><path id="Path_2560" data-name="Path 2560" d="M415.859,324.071h6.971l-1.53,7.7h-6.5Z" transform="translate(-384.59 -320.257)" fill="#e28886"></path><path id="Path_2561" data-name="Path 2561" d="M437.178,324.071l1.058,7.7h-6.491l-1.53-7.7Z" transform="translate(-380.485 -320.257)" fill="#e28886"></path><path id="Path_2562" data-name="Path 2562" d="M451.944,331.773h-6.5l-2.641-7.7h6.971Z" transform="translate(-377.132 -320.257)" fill="#e28886"></path></g></g><path id="Path_2563" data-name="Path 2563" d="M370.6,271.957c10.651-12.83,21.667-13.665,33.576-14.5s77.179,57.563,77.179,57.563v13.765l-41.716,5.1L398.373,303.9Z" transform="translate(-366.519 -172.233)" fill="#ffc55a"></path><path id="Path_2564" data-name="Path 2564" d="M370.6,271.957c10.651-12.83,21.667-13.665,33.576-14.5s77.179,57.563,77.179,57.563v13.765l-41.716,5.1L398.373,303.9Z" transform="translate(-366.519 -172.233)" fill="#f49947"></path><g id="Group_874" data-name="Group 874" transform="translate(22.387)"><path id="Path_2565" data-name="Path 2565" d="M532.633,354.159c-1.012,4.832-22.022,16.171-25.752,14.817a8.231,8.231,0,0,1-3.173-2.519l-.008-.008c-2.686-3.173-5.227-8.653-6.8-13.836l7.617-10.06a18.547,18.547,0,0,0,7.755,8.5,14.865,14.865,0,0,0,4.443,1.56C522.3,353.643,533.653,349.327,532.633,354.159Z" transform="translate(-355.273 -149.568)" fill="#af2f48"></path><path id="Path_2566" data-name="Path 2566" d="M512.27,351.062c-6.8,6.91-5.388,17.914-5.388,17.914l-3.173-2.519-.008-.008c-2.686-3.173-5.227-8.653-6.8-13.836l7.617-10.06a18.547,18.547,0,0,0,7.755,8.5Z" transform="translate(-355.273 -149.568)" fill="#89243c" opacity="0.6"></path><path id="Path_2567" data-name="Path 2567" d="M403.414,303.24c10.452,23.118,30.738,29.993,49.362,27.821a327.638,327.638,0,0,1,33.956-2.17l25.919,44.146s17.37-5.427,22.8-11.217c0,0-23.415-60.069-33.057-65.5S424,284.744,424,284.744Z" transform="translate(-380.168 -164.964)" fill="#61648a"></path><path id="Path_2568" data-name="Path 2568" d="M528.163,366.77a112.75,112.75,0,0,1-15.51,6.263l-25.919-44.145a327.951,327.951,0,0,0-33.955,2.168c-18.629,2.177-38.916-4.7-49.364-27.821L424,284.744s7.4.662,17.685,1.742l-.091,1.264c-17.373,21.764-9.321,26.543-2.953,26.543s27.64-21.764,27.64-21.764l38.749,11.124s-14.292,16.415-5.441,34.617S520.766,368.217,528.163,366.77Z" transform="translate(-380.168 -164.964)" fill="#232433" opacity="0.54"></path><path id="Path_2569" data-name="Path 2569" d="M455.47,326.045c-1.641,6.328-20.084,7.352-24.544,3.527s-3.211-7.272-1.145-9.678,15.479-6.8,15.479-6.8l10.875,2.307Z" transform="translate(-373.646 -157.414)" fill="#4a4f70"></path><path id="Path_2570" data-name="Path 2570" d="M448.5,319.764c-3.353,5.054-1.7,14.579,7.833,16.711,0,0-21.188,3.688-35.92,4.821,0,0,4.533-16.7,22.438-28.255S448.5,319.764,448.5,319.764Z" transform="translate(-375.64 -158.449)" fill="#d35473"></path><path id="Path_2571" data-name="Path 2571" d="M448.5,319.764c-3.353,5.054-1.257,14.664,8.274,16.8,0,0-21.628,3.6-36.361,4.735,0,0,4.533-16.7,22.438-28.255S448.5,319.764,448.5,319.764Z" transform="translate(-375.64 -158.449)" fill="#af2f48"></path><path id="Path_2572" data-name="Path 2572" d="M445.472,325.049c-8.594-4.127-19.542,2.226-19.542,2.226s6.886-9.493,9.67-11.587,15.343-2.595,15.343-2.595S446.291,320.953,445.472,325.049Z" transform="translate(-374.172 -157.414)" fill="#89243c"></path><path id="Path_2573" data-name="Path 2573" d="M420.955,334.367c3.015-4.262,41.4-7.338,44.423,1.3S415.358,342.281,420.955,334.367Z" transform="translate(-375.607 -152.87)" fill="#d35473"></path><path id="Path_2574" data-name="Path 2574" d="M493.239,276.27c12.172-1.87,19.409,7.537,16.876,17.308s-54.64,42.337-54.64,42.337-9.4-14.474-25.688-6.152l32.45-37.789-34.354-3.913,16.605-9.377Z" transform="translate(-373.652 -167.284)" fill="#61648a"></path><path id="Path_2575" data-name="Path 2575" d="M481.694,276.673c-4.1,2.389-15.882,9.566-19.458,15.129l-34.351-3.912,13.584-7.67,28.172-2.953Z" transform="translate(-373.651 -167.113)" fill="#232433" opacity="0.54"></path><path id="Path_2576" data-name="Path 2576" d="M466.784,277.142l-28.172,2.953,3.021-1.7Z" transform="translate(-370.795 -166.988)" fill="#61648a"></path><path id="Path_2577" data-name="Path 2577" d="M456.281,280.916v8.744l-4.452,2.519-.015.008-.061.03-44.836,25.319a53.943,53.943,0,0,1-15.25-24.649v-.008q-.389-1.3-.708-2.671c-4.094-17.488,11.369-51.374,11.369-51.374l9.915-6,8.683-1.621c10.752-.852,21.415,1.613,24.968,10.082S456.281,280.916,456.281,280.916Z" transform="translate(-383.669 -179.263)" fill="#d35473"></path><path id="Path_2578" data-name="Path 2578" d="M451.458,287.738l-44.836,25.319a53.943,53.943,0,0,1-15.25-24.649V288.4c.753-5.182,2.595-17.2,3.667-18.583,1.378-1.78,14.984-33.589,11.583-17.342s21.383,27.243,35.225,11.46l9.687,16.33s-12.975,8.888-18.027,9.171-29.1,7.321-20.935,10.227C420.495,302.494,449.8,288.529,451.458,287.738Z" transform="translate(-383.375 -174.784)" fill="#8e253e" opacity="0.38"></path><path id="Path_2579" data-name="Path 2579" d="M413.633,232.51S398.59,229.768,390,241.793s-4.259,48.1,0,53.293,35.937-4.1,35.937-4.1V280.6l-23.273-3.279Z" transform="translate(-385.057 -178.946)" fill="#d35473"></path><path id="Path_2580" data-name="Path 2580" d="M421.051,231.119c-.854,12.1-12.392,15.657-17.637,1.509A40.485,40.485,0,0,1,421.051,231.119Z" transform="translate(-380.168 -179.334)" fill="#f288a6"></path><g id="Group_872" data-name="Group 872" transform="translate(3.847)"><path id="Path_2581" data-name="Path 2581" d="M425.162,211.881s-13.242,23.7-19.109,25.044-19.908-7.9-16.589-20.2a25.791,25.791,0,0,1,8.779-13.587,61.763,61.763,0,0,0,11.2-11.014,5.226,5.226,0,0,1,4.392-1.972c7.024-.122,9.611,8.987,6.171,13.21C422.764,202.445,426.858,205.832,425.162,211.881Z" transform="translate(-387.863 -190.154)" fill="#6d3744"></path><path id="Path_2582" data-name="Path 2582" d="M415.621,230.831a9.527,9.527,0,0,1-3.932,2.856c-9.658,3.437-20.149-6.514-23.037-14.029-1.615-4.2.655-9.093,2.018-10.85,1.791,1.685,3.31,7.185,7.047,1.575l2.1-.337Z" transform="translate(-388.095 -185.187)" fill="#542633"></path><path id="Path_2583" data-name="Path 2583" d="M423.066,209.3c3.872,9.462,3.866,21.306-4.416,23.5l.553,3.451a4.687,4.687,0,0,1-3.886,5.37h0a4.688,4.688,0,0,1-5.371-3.886l-.553-3.451s-7.191-1.782-9.212-5.773-.108-.674-.108-.674l-3.352-17.071,26.132-4.19Z" transform="translate(-385.797 -185.781)" fill="#f4b8ab"></path><path id="Path_2584" data-name="Path 2584" d="M399.961,218.617c-2.735-3.52-4.966-1.5-5.1.818s5.217,7.058,6.03,4.96S399.961,218.617,399.961,218.617Z" transform="translate(-386.294 -183.081)" fill="#f4b8ab"></path><g id="Group_870" data-name="Group 870" transform="translate(23.017 31.088)"><path id="Path_2585" data-name="Path 2585" d="M407.43,218.488c-.512.082-.872-.512-1.074-1.764s-.043-1.93.469-2.012.874.512,1.074,1.765S407.941,218.405,407.43,218.488Z" transform="translate(-406.271 -214.704)" fill="#191918"></path></g><g id="Group_871" data-name="Group 871" transform="translate(32.114 29.629)"><path id="Path_2586" data-name="Path 2586" d="M414.614,217.336c-.512.082-.872-.512-1.074-1.764s-.043-1.93.469-2.012.874.512,1.075,1.765S415.126,217.253,414.614,217.336Z" transform="translate(-413.455 -213.552)" fill="#191918"></path></g><path id="Path_2587" data-name="Path 2587" d="M414.229,222.169a12.423,12.423,0,0,1-8.222-1.8" transform="translate(-383.324 -182.107)" fill="none" stroke="#e56a85" stroke-linecap="round" stroke-miterlimit="10" stroke-width="1"></path><path id="Path_2588" data-name="Path 2588" d="M415.725,227.284a79.418,79.418,0,0,1-8.018,1.489l8.572,1.962Z" transform="translate(-382.872 -180.266)" fill="#dd6595" opacity="0.53"></path><path id="Path_2589" data-name="Path 2589" d="M399.4,219.244c-2.2-1.678-3-.715-2.544,1.322s3.173,3.115,3.883,2.4S399.4,219.244,399.4,219.244Z" transform="translate(-385.794 -182.636)" fill="#dd6595" opacity="0.53"></path><path id="Path_2590" data-name="Path 2590" d="M422.513,205.579a3.091,3.091,0,0,1,.379,4.93c-5.426,4.773-13.7,4.669-18.558,5.183-5.65.6.458-7.679.458-7.679s-4.243,11.107-9.754,9.464-1.815-13.186,10.893-15.055A23.878,23.878,0,0,1,422.513,205.579Z" transform="translate(-386.906 -186.969)" fill="#6d3744"></path></g><path id="Path_2591" data-name="Path 2591" d="M416.332,273.6c4.652-2.377,8.348-4.224,11.779-1.584s4.752,8.183,4.752,8.183l-16.532,1.848Z" transform="translate(-376.728 -168.698)" fill="#f4b8ab"></path><g id="Group_873" data-name="Group 873" transform="translate(39.461 63.836)"><path id="Path_2592" data-name="Path 2592" d="M428.5,283.011l4.284-27.809A12.093,12.093,0,0,1,443.656,245l46.6-4.167a5.025,5.025,0,0,1,5.407,5.81l-6.195,34.491a4.041,4.041,0,0,1-3.734,3.32l-52.991,3.21A4.043,4.043,0,0,1,428.5,283.011Z" transform="translate(-412.963 -240.499)" fill="#4d94ce"></path><path id="Path_2593" data-name="Path 2593" d="M431.287,282.451l4.205-27.3a12.346,12.346,0,0,1,11.1-10.419l46.395-4.15a5.025,5.025,0,0,1,5.407,5.81l-6.158,34.292a4.3,4.3,0,0,1-3.972,3.532L435.8,287.4A4.3,4.3,0,0,1,431.287,282.451Z" transform="translate(-412.221 -240.565)" fill="#58aedd"></path><path id="Path_2594" data-name="Path 2594" d="M457.59,254.669l5.874-.613a2.088,2.088,0,0,1,2.264,2.482l-2.276,11.5a2.089,2.089,0,0,1-1.731,1.658l-5.334.821A2.088,2.088,0,0,1,454,268.145l1.736-11.707A2.086,2.086,0,0,1,457.59,254.669Z" transform="translate(-406.163 -236.975)" fill="#4d94ce"></path><path id="Path_2595" data-name="Path 2595" d="M481.426,278.012l-63.293,5.659a1.758,1.758,0,0,1-1.907-1.594h0a1.759,1.759,0,0,1,1.594-1.907l63.291-5.659a1.757,1.757,0,0,1,1.907,1.594h0A1.757,1.757,0,0,1,481.426,278.012Z" transform="translate(-416.219 -231.527)" fill="#4d94ce"></path><path id="Path_2596" data-name="Path 2596" d="M493.208,276.958l-63.291,5.66a1.759,1.759,0,0,1-1.907-1.594h0a1.757,1.757,0,0,1,1.594-1.907l63.291-5.659a1.757,1.757,0,0,1,1.907,1.593h0A1.757,1.757,0,0,1,493.208,276.958Z" transform="translate(-413.081 -231.807)" fill="#7dd0f4"></path></g></g><path id="Path_2597" data-name="Path 2597" d="M443.836,335.956s-26.566,6.218-46.259-4.405c-21.27-11.477-28.217-32.183-29.815-47.288-.222-2.07-.336-4.033-.381-5.852a11.117,11.117,0,0,1,7.679-10.776c21.863-7.229,66.624,14.033,69.31,55.233A62.382,62.382,0,0,1,443.836,335.956Z" transform="translate(-367.378 -169.891)" fill="#ffc55a"></path></g><g id="Group_880" data-name="Group 880" transform="translate(166.879 5.53)"><path id="Path_2598" data-name="Path 2598" d="M568.022,345.485c3.586,6.633,6.27,15,4.613,18.606s-24.493,10.565-28.643,7.892,10.061-6.728,10.1-12.407,1.418-15.75,1.418-15.75Z" transform="translate(-487.425 -85.575)" fill="#992541"></path><path id="Path_2599" data-name="Path 2599" d="M551.942,356.7c8.465-.585,10.9,6.718,8.313,11.587s10.061-4.064,10.061-4.064l3.024-13.433-6.015-7.456-14.067,4.66-1.316,2.035Z" transform="translate(-485.106 -85.706)" fill="#771833"></path><path id="Path_2600" data-name="Path 2600" d="M566.254,312.27l-4.369,10.418,1.888,7.207,5.113,19.511,7.48,28.545-5.068,1.91-6.514,2.45-7.709,2.9S536.97,351.058,530.3,327.437a47.835,47.835,0,0,1-2.124-12.479c0-19.344,5.608-42.706,16.225-69.333h.008c.243-.624.494-1.256.752-1.888.32-.784.647-1.575.975-2.367.2-.479.4-.966.6-1.446.267-.638.533-1.285.807-1.925l14.337-7.161,2.619,2.268,18.111,15.721.518.45-6.766,38.871Z" transform="translate(-491.434 -115.665)" fill="#383952"></path><path id="Path_2601" data-name="Path 2601" d="M556.273,264.8c.55,32.13-1.476,48.843-1.476,48.843l7.008-16.713Z" transform="translate(-484.346 -106.62)" fill="#232433" opacity="0.54"></path><path id="Path_2602" data-name="Path 2602" d="M575.92,358.635l-5.068,1.91-6.514,2.45-7.709,2.9s-20.105-34.154-26.771-57.774c5.76,10.776,21.787,9.947,31.581-4.749l1.888,7.207,5.113,19.511Z" transform="translate(-490.987 -96.348)" fill="#232433" opacity="0.54"></path><path id="Path_2603" data-name="Path 2603" d="M559.469,316.962c2.883,17.313-5.482,43.89-5.482,43.89l15.507-5.836Z" transform="translate(-484.562 -92.729)" fill="#232433" opacity="0.54"></path><path id="Path_2604" data-name="Path 2604" d="M583.661,364.425c-.061,2.693-.524,4.916-1.522,6.2-2.428,3.135-26.246,4.756-29.679,1.218s11.316-4.276,12.64-9.8c.251-1.074.594-2.3.981-3.57,1.606-5.288,3.957-11.46,3.957-11.46l11.811,4.452A47.19,47.19,0,0,1,583.661,364.425Z" transform="translate(-485.106 -84.726)" fill="#af2f48"></path><path id="Path_2605" data-name="Path 2605" d="M580.687,364.425c-.41-.381-7.571-6.918-17.579-5.952,1.606-5.288,3.957-11.46,3.957-11.46l11.811,4.452A47.183,47.183,0,0,1,580.687,364.425Z" transform="translate(-482.133 -84.726)" fill="#8e253e"></path><path id="Path_2606" data-name="Path 2606" d="M593.152,319.99c-3.72,27.471-9.8,66.084-9.8,66.084h-19s-.016-.152-.039-.442c-.008-.091-.015-.2-.03-.319-.015-.175-.03-.4-.053-.639-.015-.205-.03-.426-.053-.678-.053-.57-.106-1.263-.175-2.062-.015-.182-.03-.381-.046-.586s-.038-.41-.053-.624c-.51-6.156-1.408-17.152-2.412-30.455-.061-.783-.122-1.583-.182-2.381-.038-.556-.083-1.112-.122-1.675q-.08-1.037-.161-2.077c-.046-.7-.1-1.4-.152-2.108q-.114-1.529-.228-3.082c-.061-.89-.129-1.788-.19-2.686s-.138-1.811-.2-2.724c-.008-.061-.008-.129-.015-.191-.471-6.552-.943-13.362-1.384-20.212-1.72-26.2-3.12-52.91-2.862-67.758a75.937,75.937,0,0,1,.518-8.721,17.45,17.45,0,0,1,.594-2.686,12.226,12.226,0,0,1,.669-1.72c.091-.205.2-.4.3-.586a7.566,7.566,0,0,1,3.781-3.409c.093-.038.176-.076.267-.106.2-.068.4-.138.6-.19.1-.032.2-.054.3-.077l.091-.023c.205-.046.41-.091.624-.122.122-.023.251-.038.372-.053.1-.015.19-.023.29-.03,9.824-.928,25.036,11.209,25.036,11.209C596.547,261.4,596.881,292.518,593.152,319.99Z" transform="translate(-484.035 -116.527)" fill="#383952"></path><path id="Path_2607" data-name="Path 2607" d="M597.138,319.99c-3.72,27.471-9.8,66.084-9.8,66.084h-19s-.016-.152-.039-.442c-.008-.091-.015-.2-.03-.319-.015-.175-.03-.4-.053-.639-.015-.205-.038-.426-.053-.678-.053-.57-.106-1.263-.175-2.062-.015-.19-.03-.381-.046-.586s-.038-.41-.053-.624l-2.412-30.455c-.061-.783-.122-1.583-.182-2.381-.038-.556-.084-1.112-.122-1.675q-.08-1.037-.161-2.077c-.053-.7-.1-1.4-.152-2.108q-.114-1.529-.228-3.082c-.061-.89-.129-1.788-.19-2.686s-.138-1.811-.2-2.724c1.211,13.492,15.487,16.672,22.35-.381,6.925-17.213,12.062-66.464,3.173-76.35a29.949,29.949,0,0,0-10.562-7.115,59.514,59.514,0,0,0-19.222-4.314A77.138,77.138,0,0,0,541,246.487h-.008c.251-.624.5-1.256.76-1.888.32-.784.647-1.575.975-2.367.2-.479.4-.966.6-1.446.267-.638.533-1.285.807-1.925l14.337-7.161,2.619,2.268a12.219,12.219,0,0,1,.669-1.72c.091-.205.2-.4.3-.586a7.566,7.566,0,0,1,3.781-3.409c.093-.038.176-.076.267-.106.2-.068.4-.138.6-.19.1-.032.2-.054.3-.077l.091-.023a5.6,5.6,0,0,1,.624-.122c.122-.023.251-.038.372-.053.1-.015.19-.023.29-.03,9.824-.928,25.036,11.209,25.036,11.209C600.533,261.4,600.868,292.518,597.138,319.99Z" transform="translate(-488.022 -116.527)" fill="#232433" opacity="0.54"></path><path id="Path_2608" data-name="Path 2608" d="M644.114,213.133c-.305,7.892-29.322,32.844-29.322,32.844l-4.825-9.177.784-2.488,6.491-20.691c.062-.175.115-.336.161-.488l-7.436-3.151s-5.41,29.352-5.41,43.156H555.276l-.235-6.491-.959-26.733-.038.061c-.814,1.073-12.686,16.7-24.275,16.825-12,.129-30.607-19.657-30.607-19.657l2.084-6.651,2.717-8.675s20.4,11.537,22.806,11.316,16.8-23.019,25.8-28.118,23.248-8.082,23.248-8.082c11.566-5.426,25.372-3.4,39.176,6.537,8.4,6.05,17.464,12.807,23.218,18.941C641.907,206.353,644.228,210.043,644.114,213.133Z" transform="translate(-499.162 -130.804)" fill="#61648a"></path><path id="Path_2609" data-name="Path 2609" d="M565.406,175.266c3.658,2.882,2.93,9.951,2.93,9.951l-7.7-.992-7.379,6.324a15.43,15.43,0,0,1-2.207-10.962S559.641,174.74,565.406,175.266Z" transform="translate(-485.409 -130.475)" fill="#383952"></path><path id="Path_2610" data-name="Path 2610" d="M605.652,207.507l-7.436-3.151s-5.41,29.352-5.41,43.156H543.525l-.236-6.491c15.212,6.894,37.912-5.434,42.448-12.8,4.665-7.586,3.265-27.046,9.223-31.908S607.174,202.66,605.652,207.507Z" transform="translate(-487.411 -125.178)" fill="#383952" opacity="0.36"></path><g id="Group_879" data-name="Group 879" transform="translate(40.917)"><path id="Path_2611" data-name="Path 2611" d="M569.889,174.357c-1.384,1.469-3.866,1.872-6.818,1.659-8.926-.647-22.153-6.994-22.153-6.994a11.385,11.385,0,0,1-9.3-12.868c.746-3.713,3.851,0,3.851,0s-1.926-8.6,2.365-12.593,3.082,1.78,3.082,1.78,9.5-9.034,22.077-3.851a13.523,13.523,0,0,1,3.035,1.735C575.5,150.394,574.958,168.969,569.889,174.357Z" transform="translate(-531.474 -139.886)" fill="#6d3744"></path><path id="Path_2612" data-name="Path 2612" d="M565.247,173.655c-1.384,1.469-3.866,1.872-6.818,1.659-3.2-4.771-8.888-16.468-9.5-20.486-.746-4.954,13.356-3.3,12.457-12.3C570.863,149.692,570.316,168.267,565.247,173.655Z" transform="translate(-526.833 -139.184)" fill="#542633"></path><g id="Group_878" data-name="Group 878" transform="translate(8.164 16.271)"><path id="Path_2613" data-name="Path 2613" d="M539.2,165.6c1.084,9.472,8.141,20.065,16.307,17.483l1.38,3.21a4.686,4.686,0,0,0,6.158,2.455h0a4.687,4.687,0,0,0,2.455-6.157l-1.38-3.211s5.12-5.354,4.69-9.808-.27-.627-.27-.627l-6.308-16.214-24.314,10.451Z" transform="translate(-537.921 -152.735)" fill="#f4b8ab"></path><path id="Path_2614" data-name="Path 2614" d="M559.755,161.654c.426-4.438,3.39-3.928,4.749-2.041s-.628,8.754-2.439,7.417S559.755,161.654,559.755,161.654Z" transform="translate(-532.106 -151.273)" fill="#f4b8ab"></path><g id="Group_876" data-name="Group 876" transform="translate(16.557 11.887)"><path id="Path_2615" data-name="Path 2615" d="M552.855,165.68c.476-.2.463-.9-.038-2.064s-1-1.654-1.473-1.449-.463.9.038,2.065S552.379,165.885,552.855,165.68Z" transform="translate(-550.996 -162.122)" fill="#191918"></path></g><g id="Group_877" data-name="Group 877" transform="translate(8.092 15.525)"><path id="Path_2616" data-name="Path 2616" d="M546.17,168.553c.476-.2.464-.9-.037-2.064s-1-1.654-1.473-1.449-.465.9.037,2.065S545.694,168.758,546.17,168.553Z" transform="translate(-544.311 -164.995)" fill="#191918"></path></g><path id="Path_2617" data-name="Path 2617" d="M550.169,172.484a12.424,12.424,0,0,0,5.985-5.92s2.488,4.284-.142,6.421S550.169,172.484,550.169,172.484Z" transform="translate(-534.659 -149.052)" fill="#e56a85"></path><path id="Path_2618" data-name="Path 2618" d="M551.81,177.341a79.2,79.2,0,0,0,7.571-3.035l-6.191,6.245Z" transform="translate(-534.222 -146.99)" fill="#dd6595" opacity="0.53"></path><path id="Path_2619" data-name="Path 2619" d="M560.248,162.008c.964-2.6,2.151-2.211,2.857-.246s-1.013,4.331-2,4.1S560.248,162.008,560.248,162.008Z" transform="translate(-531.976 -150.754)" fill="#dd6595" opacity="0.53"></path></g><path id="Path_2620" data-name="Path 2620" d="M566.149,160.124c-7.9,5.673-23.531,9.026-28.858,4s4-14.207,14.428-15.687S571.92,155.979,566.149,160.124Z" transform="translate(-530.337 -137.653)" fill="#6d3744"></path></g><path id="Path_2621" data-name="Path 2621" d="M593.873,232.77c-1.546,6.734-4.445,13.884-9.083,15.044s0-3.938,0-3.938-2.319,2.586-4.445,1.426,2.32-4.923,2.32-4.923-2.9,3.728-4.638,1.639,4.831-6.571,4.831-6.571-5.429,3.782-5.136.884,6.509-6.486,6.509-6.486l.5-4.692,4.318-1.56Z" transform="translate(-478.244 -117.594)" fill="#f4b8ab"></path><path id="Path_2622" data-name="Path 2622" d="M620.811,207.156C620.506,215.047,591.49,240,591.49,240l-4.825-9.177.784-2.488c.343,1.263,1.7,3.766,6.88,2.488,6.423-1.575,21.17-16.932,20.585-34.389C618.6,200.376,620.925,204.066,620.811,207.156Z" transform="translate(-475.859 -124.827)" fill="#383952" opacity="0.36"></path><path id="Path_2623" data-name="Path 2623" d="M554.082,212.237l-.038.061c-.814,1.073-12.686,16.7-24.275,16.825-12,.129-30.607-19.657-30.607-19.657l2.084-6.651c4.6,5.753,17.093,17.183,29.107,15.791,13.234-1.53,22.183-14.817,22.183-14.817Z" transform="translate(-499.162 -123.127)" fill="#383952" opacity="0.36"></path><path id="Path_2624" data-name="Path 2624" d="M554.8,236.493V263.8l4.867,3.2V236.493" transform="translate(-484.345 -114.159)" fill="none" stroke="#55587c" stroke-miterlimit="10" stroke-width="1"></path></g><g id="Group_881" data-name="Group 881" transform="translate(86.57)"><rect id="Rectangle_870" data-name="Rectangle 870" width="99.744" height="126.908" fill="#d0e6ef"></rect><rect id="Rectangle_871" data-name="Rectangle 871" width="83.183" height="8.681" transform="translate(8.28 5.252)" fill="#fff"></rect><path id="Path_2625" data-name="Path 2625" d="M448.923,143.468a1.78,1.78,0,1,1-1.78-1.779A1.78,1.78,0,0,1,448.923,143.468Z" transform="translate(-433.18 -133.876)" fill="#d35473"></path><path id="Path_2626" data-name="Path 2626" d="M454.676,143.468a1.78,1.78,0,1,1-1.78-1.779A1.78,1.78,0,0,1,454.676,143.468Z" transform="translate(-431.648 -133.876)" fill="#ffc55a"></path><path id="Path_2627" data-name="Path 2627" d="M460.429,143.468a1.78,1.78,0,1,1-1.78-1.779A1.78,1.78,0,0,1,460.429,143.468Z" transform="translate(-430.116 -133.876)" fill="#54d15f"></path><line id="Line_25" data-name="Line 25" x2="5.1" transform="translate(82.959 7.812)" fill="none" stroke="#61648a" stroke-linecap="round" stroke-miterlimit="10" stroke-width="1"></line><line id="Line_26" data-name="Line 26" x2="5.1" transform="translate(82.959 9.592)" fill="none" stroke="#61648a" stroke-linecap="round" stroke-miterlimit="10" stroke-width="1"></line><line id="Line_27" data-name="Line 27" x2="5.1" transform="translate(82.959 11.372)" fill="none" stroke="#61648a" stroke-linecap="round" stroke-miterlimit="10" stroke-width="1"></line><rect id="Rectangle_872" data-name="Rectangle 872" width="28.404" height="28.404" transform="translate(8.28 18.91)" fill="#61648a" opacity="0.33"></rect><rect id="Rectangle_873" data-name="Rectangle 873" width="83.183" height="63.865" transform="translate(8.28 53.348)" fill="#fff"></rect><rect id="Rectangle_874" data-name="Rectangle 874" width="47.45" height="28.404" transform="translate(44.014 18.91)" fill="#61648a" opacity="0.33"></rect><rect id="Rectangle_875" data-name="Rectangle 875" width="20.252" height="63.865" transform="translate(8.28 53.348)" fill="#383952"></rect><path id="Path_2628" data-name="Path 2628" d="M456.666,209.876h-9.642a2.636,2.636,0,0,1-2.637-2.636h0a2.636,2.636,0,0,1,2.637-2.635h9.643a2.636,2.636,0,0,1,2.635,2.635h0A2.636,2.636,0,0,1,456.666,209.876Z" transform="translate(-433.439 -117.122)" fill="#ffc55a"></path><line id="Line_28" data-name="Line 28" x2="9.633" transform="translate(13.59 68.834)" fill="none" stroke="#fff" stroke-linecap="round" stroke-miterlimit="10" stroke-width="1"></line><line id="Line_29" data-name="Line 29" x2="9.633" transform="translate(13.59 74.155)" fill="none" stroke="#fff" stroke-linecap="round" stroke-miterlimit="10" stroke-width="1"></line><line id="Line_30" data-name="Line 30" x2="9.633" transform="translate(15.294 79.476)" fill="none" stroke="#fff" stroke-linecap="round" stroke-miterlimit="10" stroke-width="1"></line><line id="Line_31" data-name="Line 31" x2="9.633" transform="translate(15.294 84.797)" fill="none" stroke="#fff" stroke-linecap="round" stroke-miterlimit="10" stroke-width="1"></line><line id="Line_32" data-name="Line 32" x2="9.633" transform="translate(13.59 90.118)" fill="none" stroke="#fff" stroke-linecap="round" stroke-miterlimit="10" stroke-width="1"></line><line id="Line_33" data-name="Line 33" x2="11.894" transform="translate(34.7 61.022)" fill="none" stroke="#d35473" stroke-linecap="round" stroke-miterlimit="10" stroke-width="1"></line><line id="Line_34" data-name="Line 34" x2="5.221" transform="translate(49.429 61.022)" fill="none" stroke="#2d292a" stroke-linecap="round" stroke-miterlimit="10" stroke-width="1"></line><line id="Line_35" data-name="Line 35" x2="25.454" transform="translate(58.069 61.022)" fill="none" stroke="#54d15f" stroke-linecap="round" stroke-miterlimit="10" stroke-width="1"></line><line id="Line_36" data-name="Line 36" x2="5.693" transform="translate(34.7 66.294)" fill="none" stroke="#ffc55a" stroke-linecap="round" stroke-miterlimit="10" stroke-width="1"></line><line id="Line_37" data-name="Line 37" x2="18.501" transform="translate(43.296 66.294)" fill="none" stroke="#2d292a" stroke-linecap="round" stroke-miterlimit="10" stroke-width="1"></line><line id="Line_38" data-name="Line 38" x2="18.555" transform="translate(64.968 66.294)" fill="none" stroke="#d35473" stroke-linecap="round" stroke-miterlimit="10" stroke-width="1"></line><line id="Line_39" data-name="Line 39" x2="6.563" transform="translate(42.502 71.566)" fill="none" stroke="#2d292a" stroke-linecap="round" stroke-miterlimit="10" stroke-width="1"></line><line id="Line_40" data-name="Line 40" x2="9.817" transform="translate(51.981 71.566)" fill="none" stroke="#54d15f" stroke-linecap="round" stroke-miterlimit="10" stroke-width="1"></line><line id="Line_41" data-name="Line 41" x2="18.555" transform="translate(64.968 71.566)" fill="none" stroke="#ffc55a" stroke-linecap="round" stroke-miterlimit="10" stroke-width="1"></line><line id="Line_42" data-name="Line 42" x2="3.838" transform="translate(34.7 82.111)" fill="none" stroke="#2d292a" stroke-linecap="round" stroke-miterlimit="10" stroke-width="1"></line><line id="Line_43" data-name="Line 43" x2="7.55" transform="translate(41.153 82.111)" fill="none" stroke="#2d292a" stroke-linecap="round" stroke-miterlimit="10" stroke-width="1"></line><line id="Line_44" data-name="Line 44" x2="15.371" transform="translate(51.701 82.111)" fill="none" stroke="#d35473" stroke-linecap="round" stroke-miterlimit="10" stroke-width="1"></line><line id="Line_45" data-name="Line 45" x2="13.522" transform="translate(70.001 82.111)" fill="none" stroke="#2d292a" stroke-linecap="round" stroke-miterlimit="10" stroke-width="1"></line><line id="Line_46" data-name="Line 46" x2="13.522" transform="translate(70.001 92.656)" fill="none" stroke="#2d292a" stroke-linecap="round" stroke-miterlimit="10" stroke-width="1"></line><line id="Line_47" data-name="Line 47" x2="7.654" transform="translate(38.94 87.383)" fill="none" stroke="#ffc55a" stroke-linecap="round" stroke-miterlimit="10" stroke-width="1"></line><line id="Line_48" data-name="Line 48" x2="12.969" transform="translate(49.702 87.383)" fill="none" stroke="#2d292a" stroke-linecap="round" stroke-miterlimit="10" stroke-width="1"></line><line id="Line_49" data-name="Line 49" x2="17.64" transform="translate(65.883 87.383)" fill="none" stroke="#54d15f" stroke-linecap="round" stroke-miterlimit="10" stroke-width="1"></line><line id="Line_50" data-name="Line 50" x2="2.488" transform="translate(43.296 92.656)" fill="none" stroke="#2d292a" stroke-linecap="round" stroke-miterlimit="10" stroke-width="1"></line><line id="Line_51" data-name="Line 51" x2="10.683" transform="translate(48.703 92.656)" fill="none" stroke="#54d15f" stroke-linecap="round" stroke-miterlimit="10" stroke-width="1"></line><line id="Line_52" data-name="Line 52" x2="4.038" transform="translate(62.67 92.656)" fill="none" stroke="#2d292a" stroke-linecap="round" stroke-miterlimit="10" stroke-width="1"></line><line id="Line_53" data-name="Line 53" x2="11.894" transform="translate(34.7 102.56)" fill="none" stroke="#54d15f" stroke-linecap="round" stroke-miterlimit="10" stroke-width="1"></line><line id="Line_54" data-name="Line 54" x2="4.948" transform="translate(49.702 102.56)" fill="none" stroke="#2d292a" stroke-linecap="round" stroke-miterlimit="10" stroke-width="1"></line><line id="Line_55" data-name="Line 55" x2="25.091" transform="translate(58.432 102.56)" fill="none" stroke="#ffc55a" stroke-linecap="round" stroke-miterlimit="10" stroke-width="1"></line><line id="Line_56" data-name="Line 56" x2="7.235" transform="translate(41.103 107.832)" fill="none" stroke="#2d292a" stroke-linecap="round" stroke-miterlimit="10" stroke-width="1"></line><line id="Line_57" data-name="Line 57" x2="8.053" transform="translate(51.981 107.832)" fill="none" stroke="#d35473" stroke-linecap="round" stroke-miterlimit="10" stroke-width="1"></line><line id="Line_58" data-name="Line 58" x2="19.938" transform="translate(63.585 107.832)" fill="none" stroke="#2d292a" stroke-linecap="round" stroke-miterlimit="10" stroke-width="1"></line></g><g id="Group_882" data-name="Group 882" transform="translate(169.528 29.158)"><rect id="Rectangle_876" data-name="Rectangle 876" width="29.258" height="26.898" fill="#d35473"></rect><text id="_" data-name="&lt;/&gt;" transform="translate(4.51 14.162)" fill="#fff" font-size="11" font-family="Lato-Black, Lato" font-weight="800"><tspan x="0" y="0">&lt;/&gt;</tspan></text></g><g id="Group_886" data-name="Group 886" transform="translate(59.517 19.663)"><g id="Group_885" data-name="Group 885"><g id="Group_884" data-name="Group 884"><g id="Group_883" data-name="Group 883"><rect id="Rectangle_877" data-name="Rectangle 877" width="29.257" height="26.898" fill="#ffc55a"></rect></g></g></g><path id="Path_2629" data-name="Path 2629" d="M414.378,161.964l7.09,6.72,12.444-12.692,9.724,7.188v13.449H414.378Z" transform="translate(-414.378 -149.73)" fill="#f49947"></path><circle id="Ellipse_45" data-name="Ellipse 45" cx="2.521" cy="2.521" r="2.521" transform="translate(5.693 5.439)" fill="#fff"></circle></g><path id="Path_2630" data-name="Path 2630" d="M443.756,332.166s-26.566,6.218-46.259-4.406c-21.27-11.477-28.217-32.183-29.815-47.288,15.577,41.534,66.023,45.43,76.388,38.741.076-.046.152-.091.22-.137A62.382,62.382,0,0,1,443.756,332.166Z" transform="translate(-367.297 -96.917)" fill="#f49947"></path></g></g></svg>